solid OpenSCAD_Model
  facet normal -1 0 0
    outer loop
      vertex -100 -90 -1
      vertex -100 -90 1
      vertex -100 90 -1
    endloop
  endfacet
  facet normal -1 0 0
    outer loop
      vertex -100 90 -1
      vertex -100 -90 1
      vertex -100 90 1
    endloop
  endfacet
  facet normal -0.707107 -0.707107 0
    outer loop
      vertex -100 -90 1
      vertex -100 -90 -1
      vertex -90 -100 -1
    endloop
  endfacet
  facet normal -0.707107 -0.707107 0
    outer loop
      vertex -90 -100 1
      vertex -100 -90 1
      vertex -90 -100 -1
    endloop
  endfacet
  facet normal -0.408248 -0.408248 -0.816497
    outer loop
      vertex -100 -90 -1
      vertex -99.5 -89.5 -1.5
      vertex -90 -100 -1
    endloop
  endfacet
  facet normal -0.408248 -0.408248 -0.816497
    outer loop
      vertex -90 -100 -1
      vertex -99.5 -89.5 -1.5
      vertex -89.5 -99.5 -1.5
    endloop
  endfacet
  facet normal -0.707107 0 -0.707107
    outer loop
      vertex -100 -90 -1
      vertex -100 90 -1
      vertex -99.5 -89.5 -1.5
    endloop
  endfacet
  facet normal -0.707107 0 -0.707107
    outer loop
      vertex -99.5 -89.5 -1.5
      vertex -100 90 -1
      vertex -99.5 89.5 -1.5
    endloop
  endfacet
  facet normal -0.408248 0.408248 -0.816497
    outer loop
      vertex -100 90 -1
      vertex -90 100 -1
      vertex -99.5 89.5 -1.5
    endloop
  endfacet
  facet normal -0.408248 0.408248 -0.816497
    outer loop
      vertex -99.5 89.5 -1.5
      vertex -90 100 -1
      vertex -89.5 99.5 -1.5
    endloop
  endfacet
  facet normal -0.707107 0.707107 0
    outer loop
      vertex -100 90 -1
      vertex -100 90 1
      vertex -90 100 -1
    endloop
  endfacet
  facet normal -0.707107 0.707107 0
    outer loop
      vertex -90 100 -1
      vertex -100 90 1
      vertex -90 100 1
    endloop
  endfacet
  facet normal -0.408248 0.408248 0.816497
    outer loop
      vertex -90 100 1
      vertex -100 90 1
      vertex -99.5 89.5 1.5
    endloop
  endfacet
  facet normal -0.408248 0.408248 0.816497
    outer loop
      vertex -89.5 99.5 1.5
      vertex -90 100 1
      vertex -99.5 89.5 1.5
    endloop
  endfacet
  facet normal -0.707107 0 0.707107
    outer loop
      vertex -100 -90 1
      vertex -99.5 -89.5 1.5
      vertex -100 90 1
    endloop
  endfacet
  facet normal -0.707107 0 0.707107
    outer loop
      vertex -100 90 1
      vertex -99.5 -89.5 1.5
      vertex -99.5 89.5 1.5
    endloop
  endfacet
  facet normal -0.408248 -0.408248 0.816497
    outer loop
      vertex -99.5 -89.5 1.5
      vertex -100 -90 1
      vertex -90 -100 1
    endloop
  endfacet
  facet normal -0.408248 -0.408248 0.816497
    outer loop
      vertex -89.5 -99.5 1.5
      vertex -99.5 -89.5 1.5
      vertex -90 -100 1
    endloop
  endfacet
  facet normal 0 -0.707107 0.707107
    outer loop
      vertex -89.5 -99.5 1.5
      vertex -90 -100 1
      vertex 90 -100 1
    endloop
  endfacet
  facet normal 0 -0.707107 0.707107
    outer loop
      vertex 89.5 -99.5 1.5
      vertex -89.5 -99.5 1.5
      vertex 90 -100 1
    endloop
  endfacet
  facet normal 0 -1 0
    outer loop
      vertex -90 -100 1
      vertex -90 -100 -1
      vertex 90 -100 -1
    endloop
  endfacet
  facet normal 0 -1 0
    outer loop
      vertex 90 -100 1
      vertex -90 -100 1
      vertex 90 -100 -1
    endloop
  endfacet
  facet normal 0 -0.707107 -0.707107
    outer loop
      vertex 90 -100 -1
      vertex -90 -100 -1
      vertex -89.5 -99.5 -1.5
    endloop
  endfacet
  facet normal 0 -0.707107 -0.707107
    outer loop
      vertex 89.5 -99.5 -1.5
      vertex 90 -100 -1
      vertex -89.5 -99.5 -1.5
    endloop
  endfacet
  facet normal 0 0 -1
    outer loop
      vertex -89.426 88.6142 -1.5
      vertex -89.426 -88.6142 -1.5
      vertex -90 -88.5 -1.5
    endloop
  endfacet
  facet normal 0 0 -1
    outer loop
      vertex -91.3858 90.574 -1.5
      vertex -99.5 89.5 -1.5
      vertex -89.5 99.5 -1.5
    endloop
  endfacet
  facet normal 0 0 -1
    outer loop
      vertex -88.5 90 -1.5
      vertex -89.5 99.5 -1.5
      vertex 89.5 99.5 -1.5
    endloop
  endfacet
  facet normal 0 0 -1
    outer loop
      vertex 91.3858 90.574 -1.5
      vertex 89.5 99.5 -1.5
      vertex 99.5 89.5 -1.5
    endloop
  endfacet
  facet normal 0 0 -1
    outer loop
      vertex 91.3858 -89.426 -1.5
      vertex 99.5 89.5 -1.5
      vertex 99.5 -89.5 -1.5
    endloop
  endfacet
  facet normal 0 0 -1
    outer loop
      vertex 90.574 -91.3858 -1.5
      vertex 99.5 -89.5 -1.5
      vertex 89.5 -99.5 -1.5
    endloop
  endfacet
  facet normal 0 0 -1
    outer loop
      vertex -99.5 -89.5 -1.5
      vertex -99.5 89.5 -1.5
      vertex -91.5 -90 -1.5
    endloop
  endfacet
  facet normal 0 0 -1
    outer loop
      vertex -99.5 -89.5 -1.5
      vertex -91.5 -90 -1.5
      vertex -91.3858 -90.574 -1.5
    endloop
  endfacet
  facet normal 0 0 -1
    outer loop
      vertex -99.5 -89.5 -1.5
      vertex -91.3858 -90.574 -1.5
      vertex -89.5 -99.5 -1.5
    endloop
  endfacet
  facet normal 0 0 -1
    outer loop
      vertex -89.426 88.6142 -1.5
      vertex -88.5 -90 -1.5
      vertex -88.6142 -89.426 -1.5
    endloop
  endfacet
  facet normal 0 0 -1
    outer loop
      vertex -89.426 -91.3858 -1.5
      vertex -89.5 -99.5 -1.5
      vertex -90 -91.5 -1.5
    endloop
  endfacet
  facet normal 0 0 -1
    outer loop
      vertex -91.3858 -89.426 -1.5
      vertex -99.5 89.5 -1.5
      vertex -91.0607 -88.9393 -1.5
    endloop
  endfacet
  facet normal 0 0 -1
    outer loop
      vertex -91.0607 -91.0607 -1.5
      vertex -90.574 -91.3858 -1.5
      vertex -89.5 -99.5 -1.5
    endloop
  endfacet
  facet normal 0 0 -1
    outer loop
      vertex -91.0607 -88.9393 -1.5
      vertex -99.5 89.5 -1.5
      vertex -90.574 -88.6142 -1.5
    endloop
  endfacet
  facet normal 0 0 -1
    outer loop
      vertex -90.574 -91.3858 -1.5
      vertex -90 -91.5 -1.5
      vertex -89.5 -99.5 -1.5
    endloop
  endfacet
  facet normal 0 0 -1
    outer loop
      vertex -88.5 -90 -1.5
      vertex 89.5 99.5 -1.5
      vertex -88.6142 -90.574 -1.5
    endloop
  endfacet
  facet normal 0 0 -1
    outer loop
      vertex -89.5 -99.5 -1.5
      vertex -89.426 -91.3858 -1.5
      vertex -88.9393 -91.0607 -1.5
    endloop
  endfacet
  facet normal 0 0 -1
    outer loop
      vertex -89.5 -99.5 -1.5
      vertex -88.9393 -91.0607 -1.5
      vertex 89.5 99.5 -1.5
    endloop
  endfacet
  facet normal 0 0 -1
    outer loop
      vertex -88.9393 -91.0607 -1.5
      vertex -88.6142 -90.574 -1.5
      vertex 89.5 99.5 -1.5
    endloop
  endfacet
  facet normal 0 0 -1
    outer loop
      vertex -89.426 88.6142 -1.5
      vertex -88.9393 -88.9393 -1.5
      vertex -89.426 -88.6142 -1.5
    endloop
  endfacet
  facet normal 0 0 -1
    outer loop
      vertex -89.426 88.6142 -1.5
      vertex -88.6142 -89.426 -1.5
      vertex -88.9393 -88.9393 -1.5
    endloop
  endfacet
  facet normal 0 0 -1
    outer loop
      vertex -91.5 -90 -1.5
      vertex -99.5 89.5 -1.5
      vertex -91.3858 -89.426 -1.5
    endloop
  endfacet
  facet normal 0 0 -1
    outer loop
      vertex -90 -88.5 -1.5
      vertex -99.5 89.5 -1.5
      vertex -91.5 90 -1.5
    endloop
  endfacet
  facet normal 0 0 -1
    outer loop
      vertex -90 -88.5 -1.5
      vertex -91.5 90 -1.5
      vertex -91.3858 89.426 -1.5
    endloop
  endfacet
  facet normal 0 0 -1
    outer loop
      vertex -90 -88.5 -1.5
      vertex -91.3858 89.426 -1.5
      vertex -91.0607 88.9393 -1.5
    endloop
  endfacet
  facet normal 0 0 -1
    outer loop
      vertex -90 -88.5 -1.5
      vertex -91.0607 88.9393 -1.5
      vertex -90.574 88.6142 -1.5
    endloop
  endfacet
  facet normal 0 0 -1
    outer loop
      vertex -90 -88.5 -1.5
      vertex -90.574 88.6142 -1.5
      vertex -90 88.5 -1.5
    endloop
  endfacet
  facet normal 0 0 -1
    outer loop
      vertex -88.9393 91.0607 -1.5
      vertex -89.5 99.5 -1.5
      vertex -88.6142 90.574 -1.5
    endloop
  endfacet
  facet normal 0 0 -1
    outer loop
      vertex -88.5 -90 -1.5
      vertex -89.426 88.6142 -1.5
      vertex 89.5 99.5 -1.5
    endloop
  endfacet
  facet normal 0 0 -1
    outer loop
      vertex -90 91.5 -1.5
      vertex -89.5 99.5 -1.5
      vertex -89.426 91.3858 -1.5
    endloop
  endfacet
  facet normal 0 0 -1
    outer loop
      vertex -89.426 88.6142 -1.5
      vertex -88.9393 88.9393 -1.5
      vertex 89.5 99.5 -1.5
    endloop
  endfacet
  facet normal 0 0 -1
    outer loop
      vertex -89.426 91.3858 -1.5
      vertex -89.5 99.5 -1.5
      vertex -88.9393 91.0607 -1.5
    endloop
  endfacet
  facet normal 0 0 -1
    outer loop
      vertex -88.9393 88.9393 -1.5
      vertex -88.6142 89.426 -1.5
      vertex 89.5 99.5 -1.5
    endloop
  endfacet
  facet normal 0 0 -1
    outer loop
      vertex -88.6142 90.574 -1.5
      vertex -89.5 99.5 -1.5
      vertex -88.5 90 -1.5
    endloop
  endfacet
  facet normal 0 0 -1
    outer loop
      vertex -88.6142 89.426 -1.5
      vertex -88.5 90 -1.5
      vertex 89.5 99.5 -1.5
    endloop
  endfacet
  facet normal 0 0 -1
    outer loop
      vertex -90.574 91.3858 -1.5
      vertex -89.5 99.5 -1.5
      vertex -90 91.5 -1.5
    endloop
  endfacet
  facet normal 0 0 -1
    outer loop
      vertex -91.0607 91.0607 -1.5
      vertex -89.5 99.5 -1.5
      vertex -90.574 91.3858 -1.5
    endloop
  endfacet
  facet normal 0 0 -1
    outer loop
      vertex -91.3858 90.574 -1.5
      vertex -89.5 99.5 -1.5
      vertex -91.0607 91.0607 -1.5
    endloop
  endfacet
  facet normal 0 0 -1
    outer loop
      vertex -91.5 90 -1.5
      vertex -99.5 89.5 -1.5
      vertex -91.3858 90.574 -1.5
    endloop
  endfacet
  facet normal 0 0 -1
    outer loop
      vertex 88.6142 -90.574 -1.5
      vertex -89.5 -99.5 -1.5
      vertex 88.5 -90 -1.5
    endloop
  endfacet
  facet normal 0 0 -1
    outer loop
      vertex -89.5 -99.5 -1.5
      vertex 99.5 89.5 -1.5
      vertex 88.5 -90 -1.5
    endloop
  endfacet
  facet normal 0 0 -1
    outer loop
      vertex 91.3858 -89.426 -1.5
      vertex 99.5 -89.5 -1.5
      vertex 91.5 -90 -1.5
    endloop
  endfacet
  facet normal 0 0 -1
    outer loop
      vertex -89.5 -99.5 -1.5
      vertex 88.6142 -90.574 -1.5
      vertex 89.5 -99.5 -1.5
    endloop
  endfacet
  facet normal 0 0 -1
    outer loop
      vertex 91.5 -90 -1.5
      vertex 99.5 -89.5 -1.5
      vertex 91.3858 -90.574 -1.5
    endloop
  endfacet
  facet normal 0 0 -1
    outer loop
      vertex 88.6142 -90.574 -1.5
      vertex 88.9393 -91.0607 -1.5
      vertex 89.5 -99.5 -1.5
    endloop
  endfacet
  facet normal 0 0 -1
    outer loop
      vertex 91.3858 -90.574 -1.5
      vertex 99.5 -89.5 -1.5
      vertex 91.0607 -91.0607 -1.5
    endloop
  endfacet
  facet normal 0 0 -1
    outer loop
      vertex 88.9393 -91.0607 -1.5
      vertex 89.426 -91.3858 -1.5
      vertex 89.5 -99.5 -1.5
    endloop
  endfacet
  facet normal 0 0 -1
    outer loop
      vertex 89.426 -91.3858 -1.5
      vertex 90 -91.5 -1.5
      vertex 89.5 -99.5 -1.5
    endloop
  endfacet
  facet normal 0 0 -1
    outer loop
      vertex 90 -91.5 -1.5
      vertex 90.574 -91.3858 -1.5
      vertex 89.5 -99.5 -1.5
    endloop
  endfacet
  facet normal 0 0 -1
    outer loop
      vertex 91.0607 -91.0607 -1.5
      vertex 99.5 -89.5 -1.5
      vertex 90.574 -91.3858 -1.5
    endloop
  endfacet
  facet normal 0 0 -1
    outer loop
      vertex 91.0607 -88.9393 -1.5
      vertex 99.5 89.5 -1.5
      vertex 91.3858 -89.426 -1.5
    endloop
  endfacet
  facet normal 0 0 -1
    outer loop
      vertex 91.0607 88.9393 -1.5
      vertex 99.5 89.5 -1.5
      vertex 90.574 88.6142 -1.5
    endloop
  endfacet
  facet normal 0 0 -1
    outer loop
      vertex 90.574 -88.6142 -1.5
      vertex 99.5 89.5 -1.5
      vertex 91.0607 -88.9393 -1.5
    endloop
  endfacet
  facet normal 0 0 -1
    outer loop
      vertex 90 -88.5 -1.5
      vertex 99.5 89.5 -1.5
      vertex 90.574 -88.6142 -1.5
    endloop
  endfacet
  facet normal 0 0 -1
    outer loop
      vertex 89.426 -88.6142 -1.5
      vertex 99.5 89.5 -1.5
      vertex 90 -88.5 -1.5
    endloop
  endfacet
  facet normal 0 0 -1
    outer loop
      vertex 88.9393 -88.9393 -1.5
      vertex 99.5 89.5 -1.5
      vertex 89.426 -88.6142 -1.5
    endloop
  endfacet
  facet normal 0 0 -1
    outer loop
      vertex 88.6142 -89.426 -1.5
      vertex 99.5 89.5 -1.5
      vertex 88.9393 -88.9393 -1.5
    endloop
  endfacet
  facet normal 0 0 -1
    outer loop
      vertex 88.5 -90 -1.5
      vertex 99.5 89.5 -1.5
      vertex 88.6142 -89.426 -1.5
    endloop
  endfacet
  facet normal 0 0 -1
    outer loop
      vertex -89.5 -99.5 -1.5
      vertex 89.5 99.5 -1.5
      vertex 88.5 90 -1.5
    endloop
  endfacet
  facet normal 0 0 -1
    outer loop
      vertex -89.5 -99.5 -1.5
      vertex 88.5 90 -1.5
      vertex 88.6142 89.426 -1.5
    endloop
  endfacet
  facet normal 0 0 -1
    outer loop
      vertex -89.5 -99.5 -1.5
      vertex 88.6142 89.426 -1.5
      vertex 88.9393 88.9393 -1.5
    endloop
  endfacet
  facet normal 0 0 -1
    outer loop
      vertex -89.5 -99.5 -1.5
      vertex 88.9393 88.9393 -1.5
      vertex 89.426 88.6142 -1.5
    endloop
  endfacet
  facet normal 0 0 -1
    outer loop
      vertex -89.5 -99.5 -1.5
      vertex 89.426 88.6142 -1.5
      vertex 90 88.5 -1.5
    endloop
  endfacet
  facet normal 0 0 -1
    outer loop
      vertex -89.5 -99.5 -1.5
      vertex 90 88.5 -1.5
      vertex 99.5 89.5 -1.5
    endloop
  endfacet
  facet normal 0 0 -1
    outer loop
      vertex 90 88.5 -1.5
      vertex 90.574 88.6142 -1.5
      vertex 99.5 89.5 -1.5
    endloop
  endfacet
  facet normal 0 0 -1
    outer loop
      vertex 91.3858 89.426 -1.5
      vertex 99.5 89.5 -1.5
      vertex 91.0607 88.9393 -1.5
    endloop
  endfacet
  facet normal 0 0 -1
    outer loop
      vertex 91.5 90 -1.5
      vertex 99.5 89.5 -1.5
      vertex 91.3858 89.426 -1.5
    endloop
  endfacet
  facet normal 0 0 -1
    outer loop
      vertex 91.0607 91.0607 -1.5
      vertex 89.5 99.5 -1.5
      vertex 91.3858 90.574 -1.5
    endloop
  endfacet
  facet normal 0 0 -1
    outer loop
      vertex 91.5 90 -1.5
      vertex 91.3858 90.574 -1.5
      vertex 99.5 89.5 -1.5
    endloop
  endfacet
  facet normal 0 0 -1
    outer loop
      vertex 90.574 91.3858 -1.5
      vertex 89.5 99.5 -1.5
      vertex 91.0607 91.0607 -1.5
    endloop
  endfacet
  facet normal 0 0 -1
    outer loop
      vertex 90 91.5 -1.5
      vertex 89.5 99.5 -1.5
      vertex 90.574 91.3858 -1.5
    endloop
  endfacet
  facet normal 0 0 -1
    outer loop
      vertex 89.426 91.3858 -1.5
      vertex 89.5 99.5 -1.5
      vertex 90 91.5 -1.5
    endloop
  endfacet
  facet normal 0 0 -1
    outer loop
      vertex 88.9393 91.0607 -1.5
      vertex 89.5 99.5 -1.5
      vertex 89.426 91.3858 -1.5
    endloop
  endfacet
  facet normal 0 0 -1
    outer loop
      vertex 88.6142 90.574 -1.5
      vertex 89.5 99.5 -1.5
      vertex 88.9393 91.0607 -1.5
    endloop
  endfacet
  facet normal 0 0 -1
    outer loop
      vertex 88.5 90 -1.5
      vertex 89.5 99.5 -1.5
      vertex 88.6142 90.574 -1.5
    endloop
  endfacet
  facet normal 0 0 -1
    outer loop
      vertex -91.0607 -91.0607 -1.5
      vertex -89.5 -99.5 -1.5
      vertex -91.3858 -90.574 -1.5
    endloop
  endfacet
  facet normal 0 0 -1
    outer loop
      vertex -90.574 -88.6142 -1.5
      vertex -99.5 89.5 -1.5
      vertex -90 -88.5 -1.5
    endloop
  endfacet
  facet normal 0 0 -1
    outer loop
      vertex -89.426 88.6142 -1.5
      vertex -90 -88.5 -1.5
      vertex -90 88.5 -1.5
    endloop
  endfacet
  facet normal 0 0.707107 -0.707107
    outer loop
      vertex -90 100 -1
      vertex 90 100 -1
      vertex -89.5 99.5 -1.5
    endloop
  endfacet
  facet normal 0 0.707107 -0.707107
    outer loop
      vertex -89.5 99.5 -1.5
      vertex 90 100 -1
      vertex 89.5 99.5 -1.5
    endloop
  endfacet
  facet normal 0 1 0
    outer loop
      vertex -90 100 -1
      vertex -90 100 1
      vertex 90 100 -1
    endloop
  endfacet
  facet normal 0 1 0
    outer loop
      vertex 90 100 -1
      vertex -90 100 1
      vertex 90 100 1
    endloop
  endfacet
  facet normal 0 0.707107 0.707107
    outer loop
      vertex -90 100 1
      vertex -89.5 99.5 1.5
      vertex 90 100 1
    endloop
  endfacet
  facet normal 0 0.707107 0.707107
    outer loop
      vertex 90 100 1
      vertex -89.5 99.5 1.5
      vertex 89.5 99.5 1.5
    endloop
  endfacet
  facet normal 0 0 1
    outer loop
      vertex -91.3858 -90.574 1.5
      vertex -99.5 -89.5 1.5
      vertex -89.5 -99.5 1.5
    endloop
  endfacet
  facet normal 0 0 1
    outer loop
      vertex -90 80 1.5
      vertex -99.5 89.5 1.5
      vertex -90 -80 1.5
    endloop
  endfacet
  facet normal 0 0 1
    outer loop
      vertex -91.5 -90 1.5
      vertex -99.5 -89.5 1.5
      vertex -91.3858 -90.574 1.5
    endloop
  endfacet
  facet normal 0 0 1
    outer loop
      vertex -99.5 89.5 1.5
      vertex -99.5 -89.5 1.5
      vertex -91.5 -90 1.5
    endloop
  endfacet
  facet normal 0 0 1
    outer loop
      vertex -91.5 -90 1.5
      vertex -91.3858 -89.426 1.5
      vertex -99.5 89.5 1.5
    endloop
  endfacet
  facet normal 0 0 1
    outer loop
      vertex -80 -90 1.5
      vertex -89.426 -88.6142 1.5
      vertex -88.9393 -88.9393 1.5
    endloop
  endfacet
  facet normal 0 0 1
    outer loop
      vertex -99.5 89.5 1.5
      vertex -91.3858 -89.426 1.5
      vertex -91.0607 -88.9393 1.5
    endloop
  endfacet
  facet normal 0 0 1
    outer loop
      vertex -90.574 -91.3858 1.5
      vertex -91.0607 -91.0607 1.5
      vertex -89.5 -99.5 1.5
    endloop
  endfacet
  facet normal 0 0 1
    outer loop
      vertex -99.5 89.5 1.5
      vertex -91.0607 -88.9393 1.5
      vertex -90.574 -88.6142 1.5
    endloop
  endfacet
  facet normal 0 0 1
    outer loop
      vertex -90 -91.5 1.5
      vertex -90.574 -91.3858 1.5
      vertex -89.5 -99.5 1.5
    endloop
  endfacet
  facet normal 0 0 1
    outer loop
      vertex -90 -80 1.5
      vertex -99.5 89.5 1.5
      vertex -90 -88.5 1.5
    endloop
  endfacet
  facet normal 0 0 1
    outer loop
      vertex -88.9393 -91.0607 1.5
      vertex -89.426 -91.3858 1.5
      vertex -89.5 -99.5 1.5
    endloop
  endfacet
  facet normal 0 0 1
    outer loop
      vertex 89.5 -99.5 1.5
      vertex -88.5 -90 1.5
      vertex -89.5 -99.5 1.5
    endloop
  endfacet
  facet normal 0 0 1
    outer loop
      vertex -80 -90 1.5
      vertex -88.6142 -89.426 1.5
      vertex -88.5 -90 1.5
    endloop
  endfacet
  facet normal 0 0 1
    outer loop
      vertex -88.5 -90 1.5
      vertex -88.6142 -90.574 1.5
      vertex -89.5 -99.5 1.5
    endloop
  endfacet
  facet normal 0 0 1
    outer loop
      vertex -88.6142 -90.574 1.5
      vertex -88.9393 -91.0607 1.5
      vertex -89.5 -99.5 1.5
    endloop
  endfacet
  facet normal 0 0 1
    outer loop
      vertex -89.426 -91.3858 1.5
      vertex -90 -91.5 1.5
      vertex -89.5 -99.5 1.5
    endloop
  endfacet
  facet normal 0 0 1
    outer loop
      vertex -80 -90 1.5
      vertex -88.9393 -88.9393 1.5
      vertex -88.6142 -89.426 1.5
    endloop
  endfacet
  facet normal 0 0 1
    outer loop
      vertex -80 -90 1.5
      vertex -90 -88.5 1.5
      vertex -89.426 -88.6142 1.5
    endloop
  endfacet
  facet normal 0 0 1
    outer loop
      vertex -91.3858 90.574 1.5
      vertex -99.5 89.5 1.5
      vertex -91.5 90 1.5
    endloop
  endfacet
  facet normal 0 0 1
    outer loop
      vertex -90 91.5 1.5
      vertex -89.426 91.3858 1.5
      vertex 89.5 99.5 1.5
    endloop
  endfacet
  facet normal 0 0 1
    outer loop
      vertex -89.5 99.5 1.5
      vertex -99.5 89.5 1.5
      vertex -91.3858 90.574 1.5
    endloop
  endfacet
  facet normal 0 0 1
    outer loop
      vertex -88.6142 90.574 1.5
      vertex -88.5 90 1.5
      vertex 89.5 99.5 1.5
    endloop
  endfacet
  facet normal 0 0 1
    outer loop
      vertex -89.426 91.3858 1.5
      vertex -88.9393 91.0607 1.5
      vertex 89.5 99.5 1.5
    endloop
  endfacet
  facet normal 0 0 1
    outer loop
      vertex -89.5 99.5 1.5
      vertex -91.0607 91.0607 1.5
      vertex -90.574 91.3858 1.5
    endloop
  endfacet
  facet normal 0 0 1
    outer loop
      vertex -89.5 99.5 1.5
      vertex -90 91.5 1.5
      vertex 89.5 99.5 1.5
    endloop
  endfacet
  facet normal 0 0 1
    outer loop
      vertex -89.5 99.5 1.5
      vertex -90.574 91.3858 1.5
      vertex -90 91.5 1.5
    endloop
  endfacet
  facet normal 0 0 1
    outer loop
      vertex -88.9393 91.0607 1.5
      vertex -88.6142 90.574 1.5
      vertex 89.5 99.5 1.5
    endloop
  endfacet
  facet normal 0 0 1
    outer loop
      vertex -91.3858 90.574 1.5
      vertex -91.0607 91.0607 1.5
      vertex -89.5 99.5 1.5
    endloop
  endfacet
  facet normal 0 0 1
    outer loop
      vertex 90 -80 1.5
      vertex 80 -90 1.5
      vertex 88.6142 -89.426 1.5
    endloop
  endfacet
  facet normal 0 0 1
    outer loop
      vertex 91.5 -90 1.5
      vertex 91.3858 -90.574 1.5
      vertex 99.5 -89.5 1.5
    endloop
  endfacet
  facet normal 0 0 1
    outer loop
      vertex -91.0607 88.9393 1.5
      vertex -99.5 89.5 1.5
      vertex -90.574 88.6142 1.5
    endloop
  endfacet
  facet normal 0 0 1
    outer loop
      vertex -91.3858 89.426 1.5
      vertex -99.5 89.5 1.5
      vertex -91.0607 88.9393 1.5
    endloop
  endfacet
  facet normal 0 0 1
    outer loop
      vertex 90 -80 1.5
      vertex 90 -88.5 1.5
      vertex 99.5 -89.5 1.5
    endloop
  endfacet
  facet normal 0 0 1
    outer loop
      vertex 88.5 -90 1.5
      vertex 88.6142 -89.426 1.5
      vertex 80 -90 1.5
    endloop
  endfacet
  facet normal 0 0 1
    outer loop
      vertex 90 -80 1.5
      vertex 89.426 -88.6142 1.5
      vertex 90 -88.5 1.5
    endloop
  endfacet
  facet normal 0 0 1
    outer loop
      vertex 89.5 99.5 1.5
      vertex -88.5 90 1.5
      vertex -80 90 1.5
    endloop
  endfacet
  facet normal 0 0 1
    outer loop
      vertex 89.5 99.5 1.5
      vertex -80 90 1.5
      vertex 80 90 1.5
    endloop
  endfacet
  facet normal 0 0 1
    outer loop
      vertex 99.5 89.5 1.5
      vertex 90 80 1.5
      vertex 99.5 -89.5 1.5
    endloop
  endfacet
  facet normal 0 0 1
    outer loop
      vertex 90 -80 1.5
      vertex 88.9393 -88.9393 1.5
      vertex 89.426 -88.6142 1.5
    endloop
  endfacet
  facet normal 0 0 1
    outer loop
      vertex 90 80 1.5
      vertex 90 -80 1.5
      vertex 99.5 -89.5 1.5
    endloop
  endfacet
  facet normal 0 0 1
    outer loop
      vertex 90 -80 1.5
      vertex 88.6142 -89.426 1.5
      vertex 88.9393 -88.9393 1.5
    endloop
  endfacet
  facet normal 0 0 1
    outer loop
      vertex 88.6142 -90.574 1.5
      vertex 80 -90 1.5
      vertex 89.5 -99.5 1.5
    endloop
  endfacet
  facet normal 0 0 1
    outer loop
      vertex 89.5 -99.5 1.5
      vertex -80 -90 1.5
      vertex -88.5 -90 1.5
    endloop
  endfacet
  facet normal 0 0 1
    outer loop
      vertex 88.9393 -91.0607 1.5
      vertex 88.6142 -90.574 1.5
      vertex 89.5 -99.5 1.5
    endloop
  endfacet
  facet normal 0 0 1
    outer loop
      vertex 88.5 -90 1.5
      vertex 80 -90 1.5
      vertex 88.6142 -90.574 1.5
    endloop
  endfacet
  facet normal 0 0 1
    outer loop
      vertex 90.574 -88.6142 1.5
      vertex 91.0607 -88.9393 1.5
      vertex 99.5 -89.5 1.5
    endloop
  endfacet
  facet normal 0 0 1
    outer loop
      vertex 80 -90 1.5
      vertex -80 -90 1.5
      vertex 89.5 -99.5 1.5
    endloop
  endfacet
  facet normal 0 0 1
    outer loop
      vertex 91.3858 -89.426 1.5
      vertex 91.5 -90 1.5
      vertex 99.5 -89.5 1.5
    endloop
  endfacet
  facet normal 0 0 1
    outer loop
      vertex 91.0607 -88.9393 1.5
      vertex 91.3858 -89.426 1.5
      vertex 99.5 -89.5 1.5
    endloop
  endfacet
  facet normal 0 0 1
    outer loop
      vertex 99.5 -89.5 1.5
      vertex 90 -88.5 1.5
      vertex 90.574 -88.6142 1.5
    endloop
  endfacet
  facet normal 0 0 1
    outer loop
      vertex 90.574 91.3858 1.5
      vertex 91.0607 91.0607 1.5
      vertex 99.5 89.5 1.5
    endloop
  endfacet
  facet normal 0 0 1
    outer loop
      vertex 88.6142 89.426 1.5
      vertex 88.5 90 1.5
      vertex 80 90 1.5
    endloop
  endfacet
  facet normal 0 0 1
    outer loop
      vertex 99.5 -89.5 1.5
      vertex 91.3858 -90.574 1.5
      vertex 89.5 -99.5 1.5
    endloop
  endfacet
  facet normal 0 0 1
    outer loop
      vertex 91.3858 -90.574 1.5
      vertex 91.0607 -91.0607 1.5
      vertex 89.5 -99.5 1.5
    endloop
  endfacet
  facet normal 0 0 1
    outer loop
      vertex 91.0607 -91.0607 1.5
      vertex 90.574 -91.3858 1.5
      vertex 89.5 -99.5 1.5
    endloop
  endfacet
  facet normal 0 0 1
    outer loop
      vertex 90.574 -91.3858 1.5
      vertex 90 -91.5 1.5
      vertex 89.5 -99.5 1.5
    endloop
  endfacet
  facet normal 0 0 1
    outer loop
      vertex 90 -91.5 1.5
      vertex 89.426 -91.3858 1.5
      vertex 89.5 -99.5 1.5
    endloop
  endfacet
  facet normal 0 0 1
    outer loop
      vertex 89.426 -91.3858 1.5
      vertex 88.9393 -91.0607 1.5
      vertex 89.5 -99.5 1.5
    endloop
  endfacet
  facet normal 0 0 1
    outer loop
      vertex 88.9393 88.9393 1.5
      vertex 88.6142 89.426 1.5
      vertex 90 80 1.5
    endloop
  endfacet
  facet normal 0 0 1
    outer loop
      vertex 80 90 1.5
      vertex 90 80 1.5
      vertex 88.6142 89.426 1.5
    endloop
  endfacet
  facet normal 0 0 1
    outer loop
      vertex 89.5 99.5 1.5
      vertex 80 90 1.5
      vertex 88.5 90 1.5
    endloop
  endfacet
  facet normal 0 0 1
    outer loop
      vertex 89.5 99.5 1.5
      vertex 88.5 90 1.5
      vertex 88.6142 90.574 1.5
    endloop
  endfacet
  facet normal 0 0 1
    outer loop
      vertex 91.3858 90.574 1.5
      vertex 91.5 90 1.5
      vertex 99.5 89.5 1.5
    endloop
  endfacet
  facet normal 0 0 1
    outer loop
      vertex 89.5 99.5 1.5
      vertex 88.6142 90.574 1.5
      vertex 88.9393 91.0607 1.5
    endloop
  endfacet
  facet normal 0 0 1
    outer loop
      vertex 91.0607 91.0607 1.5
      vertex 91.3858 90.574 1.5
      vertex 99.5 89.5 1.5
    endloop
  endfacet
  facet normal 0 0 1
    outer loop
      vertex 89.5 99.5 1.5
      vertex 88.9393 91.0607 1.5
      vertex 89.426 91.3858 1.5
    endloop
  endfacet
  facet normal 0 0 1
    outer loop
      vertex 91.5 90 1.5
      vertex 91.3858 89.426 1.5
      vertex 99.5 89.5 1.5
    endloop
  endfacet
  facet normal 0 0 1
    outer loop
      vertex 89.5 99.5 1.5
      vertex 89.426 91.3858 1.5
      vertex 90 91.5 1.5
    endloop
  endfacet
  facet normal 0 0 1
    outer loop
      vertex 89.5 99.5 1.5
      vertex 90.574 91.3858 1.5
      vertex 99.5 89.5 1.5
    endloop
  endfacet
  facet normal 0 0 1
    outer loop
      vertex 89.5 99.5 1.5
      vertex 90 91.5 1.5
      vertex 90.574 91.3858 1.5
    endloop
  endfacet
  facet normal 0 0 1
    outer loop
      vertex 99.5 89.5 1.5
      vertex 91.3858 89.426 1.5
      vertex 90 80 1.5
    endloop
  endfacet
  facet normal 0 0 1
    outer loop
      vertex 91.3858 89.426 1.5
      vertex 91.0607 88.9393 1.5
      vertex 90 80 1.5
    endloop
  endfacet
  facet normal 0 0 1
    outer loop
      vertex 91.0607 88.9393 1.5
      vertex 90.574 88.6142 1.5
      vertex 90 80 1.5
    endloop
  endfacet
  facet normal 0 0 1
    outer loop
      vertex 90.574 88.6142 1.5
      vertex 90 88.5 1.5
      vertex 90 80 1.5
    endloop
  endfacet
  facet normal 0 0 1
    outer loop
      vertex 90 88.5 1.5
      vertex 89.426 88.6142 1.5
      vertex 90 80 1.5
    endloop
  endfacet
  facet normal 0 0 1
    outer loop
      vertex 89.426 88.6142 1.5
      vertex 88.9393 88.9393 1.5
      vertex 90 80 1.5
    endloop
  endfacet
  facet normal 0 0 1
    outer loop
      vertex -91.0607 -91.0607 1.5
      vertex -91.3858 -90.574 1.5
      vertex -89.5 -99.5 1.5
    endloop
  endfacet
  facet normal 0 0 1
    outer loop
      vertex -90.574 -88.6142 1.5
      vertex -90 -88.5 1.5
      vertex -99.5 89.5 1.5
    endloop
  endfacet
  facet normal 0 0 1
    outer loop
      vertex -91.3858 89.426 1.5
      vertex -91.5 90 1.5
      vertex -99.5 89.5 1.5
    endloop
  endfacet
  facet normal 0 0 1
    outer loop
      vertex -80 -90 1.5
      vertex -90 -80 1.5
      vertex -90 -88.5 1.5
    endloop
  endfacet
  facet normal 0 0 1
    outer loop
      vertex -90 80 1.5
      vertex -90.574 88.6142 1.5
      vertex -99.5 89.5 1.5
    endloop
  endfacet
  facet normal 0 0 1
    outer loop
      vertex -90 80 1.5
      vertex -90 88.5 1.5
      vertex -90.574 88.6142 1.5
    endloop
  endfacet
  facet normal 0 0 1
    outer loop
      vertex -90 80 1.5
      vertex -89.426 88.6142 1.5
      vertex -90 88.5 1.5
    endloop
  endfacet
  facet normal 0 0 1
    outer loop
      vertex -90 80 1.5
      vertex -88.9393 88.9393 1.5
      vertex -89.426 88.6142 1.5
    endloop
  endfacet
  facet normal 0 0 1
    outer loop
      vertex -90 80 1.5
      vertex -88.6142 89.426 1.5
      vertex -88.9393 88.9393 1.5
    endloop
  endfacet
  facet normal 0 0 1
    outer loop
      vertex -90 80 1.5
      vertex -88.5 90 1.5
      vertex -88.6142 89.426 1.5
    endloop
  endfacet
  facet normal 0 0 1
    outer loop
      vertex -90 80 1.5
      vertex -80 90 1.5
      vertex -88.5 90 1.5
    endloop
  endfacet
  facet normal 0.408248 -0.408248 0.816497
    outer loop
      vertex 99.5 -89.5 1.5
      vertex 89.5 -99.5 1.5
      vertex 90 -100 1
    endloop
  endfacet
  facet normal 0.408248 -0.408248 0.816497
    outer loop
      vertex 100 -90 1
      vertex 99.5 -89.5 1.5
      vertex 90 -100 1
    endloop
  endfacet
  facet normal 0.707107 -0.707107 0
    outer loop
      vertex 90 -100 1
      vertex 90 -100 -1
      vertex 100 -90 -1
    endloop
  endfacet
  facet normal 0.707107 -0.707107 0
    outer loop
      vertex 100 -90 1
      vertex 90 -100 1
      vertex 100 -90 -1
    endloop
  endfacet
  facet normal 0.408248 -0.408248 -0.816497
    outer loop
      vertex 89.5 -99.5 -1.5
      vertex 99.5 -89.5 -1.5
      vertex 90 -100 -1
    endloop
  endfacet
  facet normal 0.408248 -0.408248 -0.816497
    outer loop
      vertex 90 -100 -1
      vertex 99.5 -89.5 -1.5
      vertex 100 -90 -1
    endloop
  endfacet
  facet normal 0.707107 0 -0.707107
    outer loop
      vertex 100 -90 -1
      vertex 99.5 -89.5 -1.5
      vertex 99.5 89.5 -1.5
    endloop
  endfacet
  facet normal 0.707107 0 -0.707107
    outer loop
      vertex 100 90 -1
      vertex 100 -90 -1
      vertex 99.5 89.5 -1.5
    endloop
  endfacet
  facet normal 0.408248 0.408248 -0.816497
    outer loop
      vertex 89.5 99.5 -1.5
      vertex 90 100 -1
      vertex 99.5 89.5 -1.5
    endloop
  endfacet
  facet normal 0.408248 0.408248 -0.816497
    outer loop
      vertex 99.5 89.5 -1.5
      vertex 90 100 -1
      vertex 100 90 -1
    endloop
  endfacet
  facet normal 0.980785 0.195091 0
    outer loop
      vertex -91.5 -90 1.5
      vertex -91.3858 -90.574 1.5
      vertex -91.3858 -90.574 -1.5
    endloop
  endfacet
  facet normal 0.980785 0.195091 0
    outer loop
      vertex -91.5 -90 -1.5
      vertex -91.5 -90 1.5
      vertex -91.3858 -90.574 -1.5
    endloop
  endfacet
  facet normal 0.980785 -0.195091 0
    outer loop
      vertex -91.3858 -89.426 -1.5
      vertex -91.3858 -89.426 1.5
      vertex -91.5 -90 1.5
    endloop
  endfacet
  facet normal 0.980785 -0.195091 0
    outer loop
      vertex -91.5 -90 -1.5
      vertex -91.3858 -89.426 -1.5
      vertex -91.5 -90 1.5
    endloop
  endfacet
  facet normal 0.83147 -0.55557 0
    outer loop
      vertex -91.0607 -88.9393 -1.5
      vertex -91.0607 -88.9393 1.5
      vertex -91.3858 -89.426 1.5
    endloop
  endfacet
  facet normal 0.83147 -0.55557 0
    outer loop
      vertex -91.3858 -89.426 -1.5
      vertex -91.0607 -88.9393 -1.5
      vertex -91.3858 -89.426 1.5
    endloop
  endfacet
  facet normal 0.55557 -0.83147 0
    outer loop
      vertex -90.574 -88.6142 -1.5
      vertex -90.574 -88.6142 1.5
      vertex -91.0607 -88.9393 1.5
    endloop
  endfacet
  facet normal 0.55557 -0.83147 0
    outer loop
      vertex -91.0607 -88.9393 -1.5
      vertex -90.574 -88.6142 -1.5
      vertex -91.0607 -88.9393 1.5
    endloop
  endfacet
  facet normal 0.195091 -0.980785 0
    outer loop
      vertex -90 -88.5 -1.5
      vertex -90 -88.5 1.5
      vertex -90.574 -88.6142 1.5
    endloop
  endfacet
  facet normal 0.195091 -0.980785 0
    outer loop
      vertex -90.574 -88.6142 -1.5
      vertex -90 -88.5 -1.5
      vertex -90.574 -88.6142 1.5
    endloop
  endfacet
  facet normal -0.195091 -0.980785 0
    outer loop
      vertex -89.426 -88.6142 -1.5
      vertex -89.426 -88.6142 1.5
      vertex -90 -88.5 1.5
    endloop
  endfacet
  facet normal -0.195091 -0.980785 0
    outer loop
      vertex -90 -88.5 -1.5
      vertex -89.426 -88.6142 -1.5
      vertex -90 -88.5 1.5
    endloop
  endfacet
  facet normal -0.55557 -0.83147 0
    outer loop
      vertex -88.9393 -88.9393 -1.5
      vertex -88.9393 -88.9393 1.5
      vertex -89.426 -88.6142 1.5
    endloop
  endfacet
  facet normal -0.55557 -0.83147 0
    outer loop
      vertex -89.426 -88.6142 -1.5
      vertex -88.9393 -88.9393 -1.5
      vertex -89.426 -88.6142 1.5
    endloop
  endfacet
  facet normal -0.83147 -0.55557 0
    outer loop
      vertex -88.6142 -89.426 1.5
      vertex -88.9393 -88.9393 1.5
      vertex -88.6142 -89.426 -1.5
    endloop
  endfacet
  facet normal -0.83147 -0.55557 0
    outer loop
      vertex -88.6142 -89.426 -1.5
      vertex -88.9393 -88.9393 1.5
      vertex -88.9393 -88.9393 -1.5
    endloop
  endfacet
  facet normal -0.980785 -0.195091 0
    outer loop
      vertex -88.5 -90 1.5
      vertex -88.6142 -89.426 1.5
      vertex -88.5 -90 -1.5
    endloop
  endfacet
  facet normal -0.980785 -0.195091 0
    outer loop
      vertex -88.5 -90 -1.5
      vertex -88.6142 -89.426 1.5
      vertex -88.6142 -89.426 -1.5
    endloop
  endfacet
  facet normal -0.980785 0.195091 0
    outer loop
      vertex -88.5 -90 1.5
      vertex -88.5 -90 -1.5
      vertex -88.6142 -90.574 1.5
    endloop
  endfacet
  facet normal -0.980785 0.195091 0
    outer loop
      vertex -88.6142 -90.574 1.5
      vertex -88.5 -90 -1.5
      vertex -88.6142 -90.574 -1.5
    endloop
  endfacet
  facet normal -0.83147 0.55557 0
    outer loop
      vertex -88.6142 -90.574 1.5
      vertex -88.6142 -90.574 -1.5
      vertex -88.9393 -91.0607 1.5
    endloop
  endfacet
  facet normal -0.83147 0.55557 0
    outer loop
      vertex -88.9393 -91.0607 1.5
      vertex -88.6142 -90.574 -1.5
      vertex -88.9393 -91.0607 -1.5
    endloop
  endfacet
  facet normal -0.55557 0.83147 0
    outer loop
      vertex -88.9393 -91.0607 1.5
      vertex -88.9393 -91.0607 -1.5
      vertex -89.426 -91.3858 1.5
    endloop
  endfacet
  facet normal -0.55557 0.83147 0
    outer loop
      vertex -89.426 -91.3858 1.5
      vertex -88.9393 -91.0607 -1.5
      vertex -89.426 -91.3858 -1.5
    endloop
  endfacet
  facet normal -0.195091 0.980785 0
    outer loop
      vertex -89.426 -91.3858 1.5
      vertex -89.426 -91.3858 -1.5
      vertex -90 -91.5 1.5
    endloop
  endfacet
  facet normal -0.195091 0.980785 0
    outer loop
      vertex -90 -91.5 1.5
      vertex -89.426 -91.3858 -1.5
      vertex -90 -91.5 -1.5
    endloop
  endfacet
  facet normal 0.195091 0.980785 0
    outer loop
      vertex -90 -91.5 1.5
      vertex -90 -91.5 -1.5
      vertex -90.574 -91.3858 1.5
    endloop
  endfacet
  facet normal 0.195091 0.980785 0
    outer loop
      vertex -90.574 -91.3858 1.5
      vertex -90 -91.5 -1.5
      vertex -90.574 -91.3858 -1.5
    endloop
  endfacet
  facet normal 0.55557 0.83147 0
    outer loop
      vertex -90.574 -91.3858 1.5
      vertex -90.574 -91.3858 -1.5
      vertex -91.0607 -91.0607 1.5
    endloop
  endfacet
  facet normal 0.55557 0.83147 0
    outer loop
      vertex -91.0607 -91.0607 1.5
      vertex -90.574 -91.3858 -1.5
      vertex -91.0607 -91.0607 -1.5
    endloop
  endfacet
  facet normal 0.83147 0.55557 0
    outer loop
      vertex -91.3858 -90.574 1.5
      vertex -91.0607 -91.0607 1.5
      vertex -91.0607 -91.0607 -1.5
    endloop
  endfacet
  facet normal 0.83147 0.55557 0
    outer loop
      vertex -91.3858 -90.574 -1.5
      vertex -91.3858 -90.574 1.5
      vertex -91.0607 -91.0607 -1.5
    endloop
  endfacet
  facet normal 0.980785 -0.195091 0
    outer loop
      vertex -91.3858 90.574 -1.5
      vertex -91.3858 90.574 1.5
      vertex -91.5 90 1.5
    endloop
  endfacet
  facet normal 0.980785 -0.195091 0
    outer loop
      vertex -91.5 90 -1.5
      vertex -91.3858 90.574 -1.5
      vertex -91.5 90 1.5
    endloop
  endfacet
  facet normal 0.980785 0.195091 0
    outer loop
      vertex -91.5 90 1.5
      vertex -91.3858 89.426 1.5
      vertex -91.3858 89.426 -1.5
    endloop
  endfacet
  facet normal 0.980785 0.195091 0
    outer loop
      vertex -91.5 90 -1.5
      vertex -91.5 90 1.5
      vertex -91.3858 89.426 -1.5
    endloop
  endfacet
  facet normal 0.83147 -0.55557 0
    outer loop
      vertex -91.0607 91.0607 -1.5
      vertex -91.0607 91.0607 1.5
      vertex -91.3858 90.574 1.5
    endloop
  endfacet
  facet normal 0.83147 -0.55557 0
    outer loop
      vertex -91.3858 90.574 -1.5
      vertex -91.0607 91.0607 -1.5
      vertex -91.3858 90.574 1.5
    endloop
  endfacet
  facet normal 0.55557 -0.83147 0
    outer loop
      vertex -90.574 91.3858 -1.5
      vertex -90.574 91.3858 1.5
      vertex -91.0607 91.0607 1.5
    endloop
  endfacet
  facet normal 0.55557 -0.83147 0
    outer loop
      vertex -91.0607 91.0607 -1.5
      vertex -90.574 91.3858 -1.5
      vertex -91.0607 91.0607 1.5
    endloop
  endfacet
  facet normal 0.195091 -0.980785 0
    outer loop
      vertex -90 91.5 -1.5
      vertex -90 91.5 1.5
      vertex -90.574 91.3858 1.5
    endloop
  endfacet
  facet normal 0.195091 -0.980785 0
    outer loop
      vertex -90.574 91.3858 -1.5
      vertex -90 91.5 -1.5
      vertex -90.574 91.3858 1.5
    endloop
  endfacet
  facet normal -0.195091 -0.980785 0
    outer loop
      vertex -89.426 91.3858 -1.5
      vertex -89.426 91.3858 1.5
      vertex -90 91.5 1.5
    endloop
  endfacet
  facet normal -0.195091 -0.980785 0
    outer loop
      vertex -90 91.5 -1.5
      vertex -89.426 91.3858 -1.5
      vertex -90 91.5 1.5
    endloop
  endfacet
  facet normal -0.55557 -0.83147 0
    outer loop
      vertex -88.9393 91.0607 -1.5
      vertex -88.9393 91.0607 1.5
      vertex -89.426 91.3858 1.5
    endloop
  endfacet
  facet normal -0.55557 -0.83147 0
    outer loop
      vertex -89.426 91.3858 -1.5
      vertex -88.9393 91.0607 -1.5
      vertex -89.426 91.3858 1.5
    endloop
  endfacet
  facet normal -0.83147 -0.55557 0
    outer loop
      vertex -88.6142 90.574 1.5
      vertex -88.9393 91.0607 1.5
      vertex -88.6142 90.574 -1.5
    endloop
  endfacet
  facet normal -0.83147 -0.55557 0
    outer loop
      vertex -88.6142 90.574 -1.5
      vertex -88.9393 91.0607 1.5
      vertex -88.9393 91.0607 -1.5
    endloop
  endfacet
  facet normal -0.980785 -0.195091 0
    outer loop
      vertex -88.5 90 1.5
      vertex -88.6142 90.574 1.5
      vertex -88.5 90 -1.5
    endloop
  endfacet
  facet normal -0.980785 -0.195091 0
    outer loop
      vertex -88.5 90 -1.5
      vertex -88.6142 90.574 1.5
      vertex -88.6142 90.574 -1.5
    endloop
  endfacet
  facet normal -0.980785 0.195091 0
    outer loop
      vertex -88.5 90 1.5
      vertex -88.5 90 -1.5
      vertex -88.6142 89.426 1.5
    endloop
  endfacet
  facet normal -0.980785 0.195091 0
    outer loop
      vertex -88.6142 89.426 1.5
      vertex -88.5 90 -1.5
      vertex -88.6142 89.426 -1.5
    endloop
  endfacet
  facet normal -0.83147 0.55557 0
    outer loop
      vertex -88.6142 89.426 1.5
      vertex -88.6142 89.426 -1.5
      vertex -88.9393 88.9393 1.5
    endloop
  endfacet
  facet normal -0.83147 0.55557 0
    outer loop
      vertex -88.9393 88.9393 1.5
      vertex -88.6142 89.426 -1.5
      vertex -88.9393 88.9393 -1.5
    endloop
  endfacet
  facet normal -0.55557 0.83147 0
    outer loop
      vertex -88.9393 88.9393 1.5
      vertex -88.9393 88.9393 -1.5
      vertex -89.426 88.6142 1.5
    endloop
  endfacet
  facet normal -0.55557 0.83147 0
    outer loop
      vertex -89.426 88.6142 1.5
      vertex -88.9393 88.9393 -1.5
      vertex -89.426 88.6142 -1.5
    endloop
  endfacet
  facet normal -0.195091 0.980785 0
    outer loop
      vertex -89.426 88.6142 1.5
      vertex -89.426 88.6142 -1.5
      vertex -90 88.5 1.5
    endloop
  endfacet
  facet normal -0.195091 0.980785 0
    outer loop
      vertex -90 88.5 1.5
      vertex -89.426 88.6142 -1.5
      vertex -90 88.5 -1.5
    endloop
  endfacet
  facet normal 0.195091 0.980785 0
    outer loop
      vertex -90 88.5 1.5
      vertex -90 88.5 -1.5
      vertex -90.574 88.6142 1.5
    endloop
  endfacet
  facet normal 0.195091 0.980785 0
    outer loop
      vertex -90.574 88.6142 1.5
      vertex -90 88.5 -1.5
      vertex -90.574 88.6142 -1.5
    endloop
  endfacet
  facet normal 0.55557 0.83147 0
    outer loop
      vertex -90.574 88.6142 1.5
      vertex -90.574 88.6142 -1.5
      vertex -91.0607 88.9393 1.5
    endloop
  endfacet
  facet normal 0.55557 0.83147 0
    outer loop
      vertex -91.0607 88.9393 1.5
      vertex -90.574 88.6142 -1.5
      vertex -91.0607 88.9393 -1.5
    endloop
  endfacet
  facet normal 0.83147 0.55557 0
    outer loop
      vertex -91.3858 89.426 1.5
      vertex -91.0607 88.9393 1.5
      vertex -91.0607 88.9393 -1.5
    endloop
  endfacet
  facet normal 0.83147 0.55557 0
    outer loop
      vertex -91.3858 89.426 -1.5
      vertex -91.3858 89.426 1.5
      vertex -91.0607 88.9393 -1.5
    endloop
  endfacet
  facet normal 0.980785 -0.195091 0
    outer loop
      vertex 88.6142 -89.426 -1.5
      vertex 88.6142 -89.426 1.5
      vertex 88.5 -90 1.5
    endloop
  endfacet
  facet normal 0.980785 -0.195091 0
    outer loop
      vertex 88.5 -90 -1.5
      vertex 88.6142 -89.426 -1.5
      vertex 88.5 -90 1.5
    endloop
  endfacet
  facet normal 0.980785 0.195091 0
    outer loop
      vertex 88.5 -90 1.5
      vertex 88.6142 -90.574 1.5
      vertex 88.6142 -90.574 -1.5
    endloop
  endfacet
  facet normal 0.980785 0.195091 0
    outer loop
      vertex 88.5 -90 -1.5
      vertex 88.5 -90 1.5
      vertex 88.6142 -90.574 -1.5
    endloop
  endfacet
  facet normal 0.83147 -0.55557 0
    outer loop
      vertex 88.9393 -88.9393 -1.5
      vertex 88.9393 -88.9393 1.5
      vertex 88.6142 -89.426 1.5
    endloop
  endfacet
  facet normal 0.83147 -0.55557 0
    outer loop
      vertex 88.6142 -89.426 -1.5
      vertex 88.9393 -88.9393 -1.5
      vertex 88.6142 -89.426 1.5
    endloop
  endfacet
  facet normal 0.55557 -0.83147 0
    outer loop
      vertex 89.426 -88.6142 -1.5
      vertex 89.426 -88.6142 1.5
      vertex 88.9393 -88.9393 1.5
    endloop
  endfacet
  facet normal 0.55557 -0.83147 0
    outer loop
      vertex 88.9393 -88.9393 -1.5
      vertex 89.426 -88.6142 -1.5
      vertex 88.9393 -88.9393 1.5
    endloop
  endfacet
  facet normal 0.195091 -0.980785 0
    outer loop
      vertex 90 -88.5 -1.5
      vertex 90 -88.5 1.5
      vertex 89.426 -88.6142 1.5
    endloop
  endfacet
  facet normal 0.195091 -0.980785 0
    outer loop
      vertex 89.426 -88.6142 -1.5
      vertex 90 -88.5 -1.5
      vertex 89.426 -88.6142 1.5
    endloop
  endfacet
  facet normal -0.195091 -0.980785 0
    outer loop
      vertex 90.574 -88.6142 -1.5
      vertex 90.574 -88.6142 1.5
      vertex 90 -88.5 1.5
    endloop
  endfacet
  facet normal -0.195091 -0.980785 0
    outer loop
      vertex 90 -88.5 -1.5
      vertex 90.574 -88.6142 -1.5
      vertex 90 -88.5 1.5
    endloop
  endfacet
  facet normal -0.55557 -0.83147 0
    outer loop
      vertex 91.0607 -88.9393 -1.5
      vertex 91.0607 -88.9393 1.5
      vertex 90.574 -88.6142 1.5
    endloop
  endfacet
  facet normal -0.55557 -0.83147 0
    outer loop
      vertex 90.574 -88.6142 -1.5
      vertex 91.0607 -88.9393 -1.5
      vertex 90.574 -88.6142 1.5
    endloop
  endfacet
  facet normal -0.83147 -0.55557 0
    outer loop
      vertex 91.3858 -89.426 1.5
      vertex 91.0607 -88.9393 1.5
      vertex 91.3858 -89.426 -1.5
    endloop
  endfacet
  facet normal -0.83147 -0.55557 0
    outer loop
      vertex 91.3858 -89.426 -1.5
      vertex 91.0607 -88.9393 1.5
      vertex 91.0607 -88.9393 -1.5
    endloop
  endfacet
  facet normal -0.980785 -0.195091 0
    outer loop
      vertex 91.5 -90 1.5
      vertex 91.3858 -89.426 1.5
      vertex 91.5 -90 -1.5
    endloop
  endfacet
  facet normal -0.980785 -0.195091 0
    outer loop
      vertex 91.5 -90 -1.5
      vertex 91.3858 -89.426 1.5
      vertex 91.3858 -89.426 -1.5
    endloop
  endfacet
  facet normal -0.980785 0.195091 0
    outer loop
      vertex 91.5 -90 1.5
      vertex 91.5 -90 -1.5
      vertex 91.3858 -90.574 1.5
    endloop
  endfacet
  facet normal -0.980785 0.195091 0
    outer loop
      vertex 91.3858 -90.574 1.5
      vertex 91.5 -90 -1.5
      vertex 91.3858 -90.574 -1.5
    endloop
  endfacet
  facet normal -0.83147 0.55557 0
    outer loop
      vertex 91.3858 -90.574 1.5
      vertex 91.3858 -90.574 -1.5
      vertex 91.0607 -91.0607 1.5
    endloop
  endfacet
  facet normal -0.83147 0.55557 0
    outer loop
      vertex 91.0607 -91.0607 1.5
      vertex 91.3858 -90.574 -1.5
      vertex 91.0607 -91.0607 -1.5
    endloop
  endfacet
  facet normal -0.55557 0.83147 0
    outer loop
      vertex 91.0607 -91.0607 1.5
      vertex 91.0607 -91.0607 -1.5
      vertex 90.574 -91.3858 1.5
    endloop
  endfacet
  facet normal -0.55557 0.83147 0
    outer loop
      vertex 90.574 -91.3858 1.5
      vertex 91.0607 -91.0607 -1.5
      vertex 90.574 -91.3858 -1.5
    endloop
  endfacet
  facet normal -0.195091 0.980785 0
    outer loop
      vertex 90.574 -91.3858 1.5
      vertex 90.574 -91.3858 -1.5
      vertex 90 -91.5 1.5
    endloop
  endfacet
  facet normal -0.195091 0.980785 0
    outer loop
      vertex 90 -91.5 1.5
      vertex 90.574 -91.3858 -1.5
      vertex 90 -91.5 -1.5
    endloop
  endfacet
  facet normal 0.195091 0.980785 0
    outer loop
      vertex 90 -91.5 1.5
      vertex 90 -91.5 -1.5
      vertex 89.426 -91.3858 1.5
    endloop
  endfacet
  facet normal 0.195091 0.980785 0
    outer loop
      vertex 89.426 -91.3858 1.5
      vertex 90 -91.5 -1.5
      vertex 89.426 -91.3858 -1.5
    endloop
  endfacet
  facet normal 0.55557 0.83147 0
    outer loop
      vertex 89.426 -91.3858 1.5
      vertex 89.426 -91.3858 -1.5
      vertex 88.9393 -91.0607 1.5
    endloop
  endfacet
  facet normal 0.55557 0.83147 0
    outer loop
      vertex 88.9393 -91.0607 1.5
      vertex 89.426 -91.3858 -1.5
      vertex 88.9393 -91.0607 -1.5
    endloop
  endfacet
  facet normal 0.83147 0.55557 0
    outer loop
      vertex 88.6142 -90.574 1.5
      vertex 88.9393 -91.0607 1.5
      vertex 88.9393 -91.0607 -1.5
    endloop
  endfacet
  facet normal 0.83147 0.55557 0
    outer loop
      vertex 88.6142 -90.574 -1.5
      vertex 88.6142 -90.574 1.5
      vertex 88.9393 -91.0607 -1.5
    endloop
  endfacet
  facet normal 0.980785 -0.195091 0
    outer loop
      vertex 88.6142 90.574 -1.5
      vertex 88.6142 90.574 1.5
      vertex 88.5 90 1.5
    endloop
  endfacet
  facet normal 0.980785 -0.195091 0
    outer loop
      vertex 88.5 90 -1.5
      vertex 88.6142 90.574 -1.5
      vertex 88.5 90 1.5
    endloop
  endfacet
  facet normal 0.980785 0.195091 0
    outer loop
      vertex 88.5 90 1.5
      vertex 88.6142 89.426 1.5
      vertex 88.6142 89.426 -1.5
    endloop
  endfacet
  facet normal 0.980785 0.195091 0
    outer loop
      vertex 88.5 90 -1.5
      vertex 88.5 90 1.5
      vertex 88.6142 89.426 -1.5
    endloop
  endfacet
  facet normal 0.83147 -0.55557 0
    outer loop
      vertex 88.9393 91.0607 -1.5
      vertex 88.9393 91.0607 1.5
      vertex 88.6142 90.574 1.5
    endloop
  endfacet
  facet normal 0.83147 -0.55557 0
    outer loop
      vertex 88.6142 90.574 -1.5
      vertex 88.9393 91.0607 -1.5
      vertex 88.6142 90.574 1.5
    endloop
  endfacet
  facet normal 0.55557 -0.83147 0
    outer loop
      vertex 89.426 91.3858 -1.5
      vertex 89.426 91.3858 1.5
      vertex 88.9393 91.0607 1.5
    endloop
  endfacet
  facet normal 0.55557 -0.83147 0
    outer loop
      vertex 88.9393 91.0607 -1.5
      vertex 89.426 91.3858 -1.5
      vertex 88.9393 91.0607 1.5
    endloop
  endfacet
  facet normal 0.195091 -0.980785 0
    outer loop
      vertex 90 91.5 -1.5
      vertex 90 91.5 1.5
      vertex 89.426 91.3858 1.5
    endloop
  endfacet
  facet normal 0.195091 -0.980785 0
    outer loop
      vertex 89.426 91.3858 -1.5
      vertex 90 91.5 -1.5
      vertex 89.426 91.3858 1.5
    endloop
  endfacet
  facet normal -0.195091 -0.980785 0
    outer loop
      vertex 90.574 91.3858 -1.5
      vertex 90.574 91.3858 1.5
      vertex 90 91.5 1.5
    endloop
  endfacet
  facet normal -0.195091 -0.980785 0
    outer loop
      vertex 90 91.5 -1.5
      vertex 90.574 91.3858 -1.5
      vertex 90 91.5 1.5
    endloop
  endfacet
  facet normal -0.55557 -0.83147 0
    outer loop
      vertex 91.0607 91.0607 -1.5
      vertex 91.0607 91.0607 1.5
      vertex 90.574 91.3858 1.5
    endloop
  endfacet
  facet normal -0.55557 -0.83147 0
    outer loop
      vertex 90.574 91.3858 -1.5
      vertex 91.0607 91.0607 -1.5
      vertex 90.574 91.3858 1.5
    endloop
  endfacet
  facet normal -0.83147 -0.55557 0
    outer loop
      vertex 91.3858 90.574 1.5
      vertex 91.0607 91.0607 1.5
      vertex 91.3858 90.574 -1.5
    endloop
  endfacet
  facet normal -0.83147 -0.55557 0
    outer loop
      vertex 91.3858 90.574 -1.5
      vertex 91.0607 91.0607 1.5
      vertex 91.0607 91.0607 -1.5
    endloop
  endfacet
  facet normal -0.980785 -0.195091 0
    outer loop
      vertex 91.5 90 1.5
      vertex 91.3858 90.574 1.5
      vertex 91.5 90 -1.5
    endloop
  endfacet
  facet normal -0.980785 -0.195091 0
    outer loop
      vertex 91.5 90 -1.5
      vertex 91.3858 90.574 1.5
      vertex 91.3858 90.574 -1.5
    endloop
  endfacet
  facet normal -0.980785 0.195091 0
    outer loop
      vertex 91.5 90 1.5
      vertex 91.5 90 -1.5
      vertex 91.3858 89.426 1.5
    endloop
  endfacet
  facet normal -0.980785 0.195091 0
    outer loop
      vertex 91.3858 89.426 1.5
      vertex 91.5 90 -1.5
      vertex 91.3858 89.426 -1.5
    endloop
  endfacet
  facet normal -0.83147 0.55557 0
    outer loop
      vertex 91.3858 89.426 1.5
      vertex 91.3858 89.426 -1.5
      vertex 91.0607 88.9393 1.5
    endloop
  endfacet
  facet normal -0.83147 0.55557 0
    outer loop
      vertex 91.0607 88.9393 1.5
      vertex 91.3858 89.426 -1.5
      vertex 91.0607 88.9393 -1.5
    endloop
  endfacet
  facet normal -0.55557 0.83147 0
    outer loop
      vertex 91.0607 88.9393 1.5
      vertex 91.0607 88.9393 -1.5
      vertex 90.574 88.6142 1.5
    endloop
  endfacet
  facet normal -0.55557 0.83147 0
    outer loop
      vertex 90.574 88.6142 1.5
      vertex 91.0607 88.9393 -1.5
      vertex 90.574 88.6142 -1.5
    endloop
  endfacet
  facet normal -0.195091 0.980785 0
    outer loop
      vertex 90.574 88.6142 1.5
      vertex 90.574 88.6142 -1.5
      vertex 90 88.5 1.5
    endloop
  endfacet
  facet normal -0.195091 0.980785 0
    outer loop
      vertex 90 88.5 1.5
      vertex 90.574 88.6142 -1.5
      vertex 90 88.5 -1.5
    endloop
  endfacet
  facet normal 0.195091 0.980785 0
    outer loop
      vertex 90 88.5 1.5
      vertex 90 88.5 -1.5
      vertex 89.426 88.6142 1.5
    endloop
  endfacet
  facet normal 0.195091 0.980785 0
    outer loop
      vertex 89.426 88.6142 1.5
      vertex 90 88.5 -1.5
      vertex 89.426 88.6142 -1.5
    endloop
  endfacet
  facet normal 0.55557 0.83147 0
    outer loop
      vertex 89.426 88.6142 1.5
      vertex 89.426 88.6142 -1.5
      vertex 88.9393 88.9393 1.5
    endloop
  endfacet
  facet normal 0.55557 0.83147 0
    outer loop
      vertex 88.9393 88.9393 1.5
      vertex 89.426 88.6142 -1.5
      vertex 88.9393 88.9393 -1.5
    endloop
  endfacet
  facet normal 0.83147 0.55557 0
    outer loop
      vertex 88.6142 89.426 1.5
      vertex 88.9393 88.9393 1.5
      vertex 88.9393 88.9393 -1.5
    endloop
  endfacet
  facet normal 0.83147 0.55557 0
    outer loop
      vertex 88.6142 89.426 -1.5
      vertex 88.6142 89.426 1.5
      vertex 88.9393 88.9393 -1.5
    endloop
  endfacet
  facet normal 0.707107 0.707107 0
    outer loop
      vertex 90 100 -1
      vertex 90 100 1
      vertex 100 90 -1
    endloop
  endfacet
  facet normal 0.707107 0.707107 0
    outer loop
      vertex 100 90 -1
      vertex 90 100 1
      vertex 100 90 1
    endloop
  endfacet
  facet normal 0.408248 0.408248 0.816497
    outer loop
      vertex 90 100 1
      vertex 89.5 99.5 1.5
      vertex 99.5 89.5 1.5
    endloop
  endfacet
  facet normal 0.408248 0.408248 0.816497
    outer loop
      vertex 100 90 1
      vertex 90 100 1
      vertex 99.5 89.5 1.5
    endloop
  endfacet
  facet normal 0.707107 0 0.707107
    outer loop
      vertex 99.5 89.5 1.5
      vertex 99.5 -89.5 1.5
      vertex 100 -90 1
    endloop
  endfacet
  facet normal 0.707107 0 0.707107
    outer loop
      vertex 100 90 1
      vertex 99.5 89.5 1.5
      vertex 100 -90 1
    endloop
  endfacet
  facet normal 0.707107 0 0.707107
    outer loop
      vertex -89.5 -79.5 1
      vertex -89.5 79.5 1
      vertex -90 80 1.5
    endloop
  endfacet
  facet normal 0.707107 0 0.707107
    outer loop
      vertex -90 -80 1.5
      vertex -89.5 -79.5 1
      vertex -90 80 1.5
    endloop
  endfacet
  facet normal 0.408248 0.408248 0.816497
    outer loop
      vertex -80 -90 1.5
      vertex -79.5 -89.5 1
      vertex -89.5 -79.5 1
    endloop
  endfacet
  facet normal 0.408248 0.408248 0.816497
    outer loop
      vertex -90 -80 1.5
      vertex -80 -90 1.5
      vertex -89.5 -79.5 1
    endloop
  endfacet
  facet normal 0 0.707107 0.707107
    outer loop
      vertex 79.5 -89.5 1
      vertex -79.5 -89.5 1
      vertex 80 -90 1.5
    endloop
  endfacet
  facet normal 0 0.707107 0.707107
    outer loop
      vertex 80 -90 1.5
      vertex -79.5 -89.5 1
      vertex -80 -90 1.5
    endloop
  endfacet
  facet normal -0.408248 0.408248 0.816497
    outer loop
      vertex 80 -90 1.5
      vertex 90 -80 1.5
      vertex 89.5 -79.5 1
    endloop
  endfacet
  facet normal -0.408248 0.408248 0.816497
    outer loop
      vertex 79.5 -89.5 1
      vertex 80 -90 1.5
      vertex 89.5 -79.5 1
    endloop
  endfacet
  facet normal -0.707107 0 0.707107
    outer loop
      vertex 90 80 1.5
      vertex 89.5 79.5 1
      vertex 90 -80 1.5
    endloop
  endfacet
  facet normal -0.707107 0 0.707107
    outer loop
      vertex 90 -80 1.5
      vertex 89.5 79.5 1
      vertex 89.5 -79.5 1
    endloop
  endfacet
  facet normal -0.408248 -0.408248 0.816497
    outer loop
      vertex 89.5 79.5 1
      vertex 90 80 1.5
      vertex 80 90 1.5
    endloop
  endfacet
  facet normal -0.408248 -0.408248 0.816497
    outer loop
      vertex 79.5 89.5 1
      vertex 89.5 79.5 1
      vertex 80 90 1.5
    endloop
  endfacet
  facet normal 0 -0.707107 0.707107
    outer loop
      vertex -79.5 89.5 1
      vertex 79.5 89.5 1
      vertex 80 90 1.5
    endloop
  endfacet
  facet normal 0 -0.707107 0.707107
    outer loop
      vertex -80 90 1.5
      vertex -79.5 89.5 1
      vertex 80 90 1.5
    endloop
  endfacet
  facet normal 0.408248 -0.408248 0.816497
    outer loop
      vertex -89.5 79.5 1
      vertex -79.5 89.5 1
      vertex -80 90 1.5
    endloop
  endfacet
  facet normal 0.408248 -0.408248 0.816497
    outer loop
      vertex -90 80 1.5
      vertex -89.5 79.5 1
      vertex -80 90 1.5
    endloop
  endfacet
  facet normal 1 0 0
    outer loop
      vertex 100 -90 1
      vertex 100 -90 -1
      vertex 100 90 -1
    endloop
  endfacet
  facet normal 1 0 0
    outer loop
      vertex 100 90 1
      vertex 100 -90 1
      vertex 100 90 -1
    endloop
  endfacet
  facet normal 0 0 1
    outer loop
      vertex -79.5 -89.5 1
      vertex 79.5 -89.5 1
      vertex 89.5 -79.5 1
    endloop
  endfacet
  facet normal 0 0 1
    outer loop
      vertex 79.5 89.5 1
      vertex -79.5 -89.5 1
      vertex 89.5 79.5 1
    endloop
  endfacet
  facet normal 0 0 1
    outer loop
      vertex 89.5 79.5 1
      vertex -79.5 -89.5 1
      vertex 89.5 -79.5 1
    endloop
  endfacet
  facet normal 0 0 1
    outer loop
      vertex -79.5 89.5 1
      vertex -79.5 -89.5 1
      vertex 79.5 89.5 1
    endloop
  endfacet
  facet normal 0 0 1
    outer loop
      vertex -89.5 79.5 1
      vertex -79.5 -89.5 1
      vertex -79.5 89.5 1
    endloop
  endfacet
  facet normal 0 0 1
    outer loop
      vertex -89.5 -79.5 1
      vertex -79.5 -89.5 1
      vertex -89.5 79.5 1
    endloop
  endfacet
endsolid OpenSCAD_Model
